<?xml version="1.0" standalone="no"?>
<!DOCTYPE svg PUBLIC "-//W3C//DTD SVG 20010904//EN"
 "http://www.w3.org/TR/2001/REC-SVG-20010904/DTD/svg10.dtd">
<svg version="1.0" xmlns="http://www.w3.org/2000/svg"
 width="512.000000pt" height="512.000000pt" viewBox="0 0 512.000000 512.000000"
 preserveAspectRatio="xMidYMid meet">
<metadata>
Created by potrace 1.11, written by Peter Selinger 2001-2013
</metadata>
<g transform="translate(0.000000,512.000000) scale(0.100000,-0.100000)"
fill="#000000" stroke="none">
<path d="M2378 5109 c-330 -22 -658 -113 -963 -267 -238 -120 -424 -252 -619
-442 -430 -418 -688 -938 -767 -1545 -13 -101 -17 -470 -6 -482 4 -4 19 6 33
22 33 39 143 155 148 155 2 0 6 -43 10 -96 16 -228 85 -530 171 -750 132 -335
367 -673 630 -904 47 -41 85 -78 85 -82 0 -11 -50 -58 -61 -58 -6 0 -7 -4 -4
-10 3 -5 1 -10 -5 -10 -6 0 -15 -11 -21 -24 -6 -13 -20 -27 -30 -29 -11 -3
-19 -9 -19 -15 0 -14 181 -145 288 -209 l93 -56 72 76 72 77 118 -50 c375
-159 780 -236 1097 -210 121 10 295 34 333 46 11 3 -25 -40 -79 -95 -54 -56
-104 -111 -111 -121 -18 -25 -12 -25 117 -5 280 45 516 121 767 249 716 365
1216 1048 1352 1848 11 62 23 158 27 212 l7 100 -74 -79 c-41 -43 -89 -94
-108 -114 l-34 -36 6 50 c4 28 11 104 17 170 31 350 -84 868 -272 1227 l-51
98 54 57 c30 32 62 65 72 73 17 14 14 21 -55 122 -92 134 -196 260 -208 253
-6 -4 -10 0 -10 7 -1 7 -6 3 -13 -10 -7 -12 -16 -19 -20 -16 -6 7 -11 -10 -8
-28 0 -4 -15 -15 -35 -24 -26 -12 -32 -19 -22 -25 10 -7 9 -9 -4 -9 -26 0 -32
-19 -11 -42 10 -12 -31 28 -92 88 -198 197 -422 358 -650 469 -168 82 -293
128 -479 175 -189 48 -341 70 -523 77 -79 3 -143 8 -143 10 0 2 22 27 49 56
82 86 110 121 105 129 -6 9 -60 8 -226 -3z m119 -1690 c43 -5 99 -16 124 -24
134 -39 263 -141 315 -250 26 -54 29 -70 29 -160 0 -92 -3 -105 -32 -166 -55
-113 -177 -207 -293 -225 -22 -4 -40 -9 -39 -13 0 -3 18 -35 39 -71 22 -36 47
-82 56 -102 9 -21 20 -38 24 -38 4 0 15 -20 24 -45 10 -25 21 -45 24 -45 4 0
90 122 192 270 102 149 217 317 257 375 l71 104 -31 7 c-18 4 -35 8 -39 8 -3
1 -10 4 -13 8 -4 4 -15 3 -25 -2 -9 -5 -38 -10 -63 -11 -52 -3 -92 19 -115 62
-21 38 -9 121 22 152 13 14 27 22 30 19 3 -3 6 -1 6 5 0 17 88 6 119 -14 109
-69 127 -77 164 -77 25 1 43 8 52 20 8 11 15 15 15 10 0 -5 6 -4 13 2 21 18
62 17 90 -1 24 -15 27 -24 27 -72 0 -29 -5 -57 -10 -60 -6 -4 -8 -10 -5 -15 3
-4 -2 -11 -11 -14 -8 -3 -13 -10 -10 -15 3 -5 -1 -11 -9 -15 -8 -3 -15 -12
-15 -21 0 -8 -4 -15 -10 -15 -5 0 -10 -6 -10 -14 0 -8 -7 -17 -16 -20 -8 -3
-13 -10 -10 -15 3 -5 -1 -12 -10 -15 -8 -3 -12 -10 -9 -16 3 -6 -1 -13 -9 -16
-9 -3 -16 -12 -16 -19 0 -7 -7 -16 -16 -19 -8 -3 -13 -10 -10 -15 3 -5 -1 -12
-10 -15 -8 -3 -13 -10 -9 -15 3 -6 -1 -13 -9 -18 -11 -7 -310 -429 -409 -578
-15 -22 -36 -52 -48 -66 -16 -21 -19 -31 -11 -45 8 -14 6 -22 -6 -32 -10 -7
-11 -10 -3 -6 9 5 12 3 7 -5 -4 -6 -11 -9 -16 -6 -5 3 -18 -8 -30 -25 -12 -16
-28 -30 -36 -30 -8 0 -14 -7 -14 -15 0 -8 -3 -14 -7 -13 -5 2 -10 -1 -12 -7
-8 -16 -26 -33 -32 -29 -3 1 -13 -6 -22 -17 -9 -10 -13 -19 -9 -19 4 0 -1 -5
-10 -11 -10 -5 -18 -17 -18 -24 0 -8 -5 -14 -12 -13 -7 2 -12 -4 -13 -12 -1
-8 -6 -14 -13 -12 -7 1 -12 -2 -12 -8 0 -5 -7 -10 -15 -10 -8 0 -15 -7 -15
-16 0 -8 -4 -12 -10 -9 -5 3 -10 -1 -10 -9 0 -9 -5 -16 -10 -16 -6 0 -9 -3 -9
-7 3 -21 -3 -31 -18 -29 -10 0 -18 -6 -18 -14 -1 -8 -7 -14 -14 -12 -7 1 -15
-6 -18 -17 -3 -11 -11 -17 -18 -15 -7 3 -15 -2 -19 -11 -4 -11 -2 -14 7 -9 8
6 8 3 -1 -8 -8 -9 -20 -14 -28 -11 -10 4 -12 0 -7 -13 4 -12 3 -15 -5 -10 -7
4 -12 1 -12 -8 0 -9 -5 -15 -12 -14 -6 2 -14 -8 -18 -22 -4 -17 -13 -25 -27
-25 -12 0 -26 -5 -30 -9 -5 -5 -2 -6 6 -1 9 5 12 4 7 -3 -4 -7 -16 -12 -27
-12 -29 0 -24 45 12 99 53 78 175 248 199 278 6 7 10 17 10 23 0 5 5 10 10 10
6 0 10 6 10 14 0 8 4 16 8 18 5 2 27 30 49 63 38 56 40 62 26 80 -8 11 -23 36
-32 55 -9 19 -63 124 -121 233 l-104 197 -46 0 c-65 0 -72 8 -68 71 l3 54 165
5 c207 6 221 13 278 130 21 44 26 70 26 130 1 89 -22 142 -90 207 -66 63 -134
85 -287 91 l-128 5 3 -584 c2 -321 5 -591 8 -599 11 -33 40 -47 102 -49 34 -1
68 -7 75 -13 17 -13 17 -120 1 -136 -9 -9 -90 -12 -305 -12 l-293 0 0 80 0 80
58 0 c45 0 65 5 83 21 l24 21 0 546 c0 495 -3 614 -18 628 -10 10 -54 17 -99
15 l-48 -2 0 81 0 80 309 0 c170 0 345 -5 388 -11z m704 -1736 c-5 -20 -16
-29 -39 -34 -39 -8 -40 -3 -4 32 35 37 53 38 43 2z"/>
</g>
</svg>
